<svg width="1225" height="316" viewBox="0 0 1225 316" fill="none" xmlns="http://www.w3.org/2000/svg">
<path d="M212.367 184.577C217.913 194.421 232.087 194.421 237.633 184.577L300.289 73.3674C305.735 63.7016 298.751 51.75 287.656 51.75H162.344C151.249 51.75 144.265 63.7016 149.711 73.3675L212.367 184.577Z" fill="#F0ADAD"/>
<circle cx="225.5" cy="239.5" r="23.5" fill="#EEDF92"/>
<path d="M113.633 131.423C108.087 121.579 93.9128 121.579 88.367 131.423L25.7108 242.633C20.265 252.298 27.2494 264.25 38.3438 264.25H163.656C174.751 264.25 181.735 252.298 176.289 242.633L113.633 131.423Z" fill="#ADD0F0"/>
<circle cx="100.5" cy="76.5" r="23.5" transform="rotate(-180 100.5 76.5)" fill="#A9EAB0"/>
<path d="M469.898 93H513L549.563 182.156H551.25L587.813 93H630.914V237H597.023V148.547H595.828L561.234 236.086H539.578L504.984 148.055H503.789V237H469.898V93ZM751.943 136.172C751.475 131.016 749.389 127.008 745.686 124.148C742.029 121.242 736.803 119.789 730.006 119.789C725.506 119.789 721.756 120.375 718.756 121.547C715.756 122.719 713.506 124.336 712.006 126.398C710.506 128.414 709.732 130.734 709.686 133.359C709.592 135.516 710.014 137.414 710.951 139.055C711.936 140.695 713.342 142.148 715.17 143.414C717.045 144.633 719.295 145.711 721.92 146.648C724.545 147.586 727.498 148.406 730.779 149.109L743.154 151.922C750.279 153.469 756.561 155.531 761.998 158.109C767.482 160.688 772.076 163.758 775.779 167.32C779.529 170.883 782.365 174.984 784.287 179.625C786.209 184.266 787.193 189.469 787.24 195.234C787.193 204.328 784.896 212.133 780.35 218.648C775.803 225.164 769.264 230.156 760.732 233.625C752.248 237.094 742.006 238.828 730.006 238.828C717.959 238.828 707.459 237.023 698.506 233.414C689.553 229.805 682.592 224.32 677.623 216.961C672.654 209.602 670.1 200.297 669.959 189.047H703.287C703.568 193.688 704.811 197.555 707.014 200.648C709.217 203.742 712.24 206.086 716.084 207.68C719.975 209.273 724.475 210.07 729.584 210.07C734.271 210.07 738.256 209.437 741.537 208.172C744.865 206.906 747.42 205.148 749.201 202.898C750.982 200.648 751.896 198.07 751.943 195.164C751.896 192.445 751.053 190.125 749.412 188.203C747.771 186.234 745.24 184.547 741.818 183.141C738.443 181.687 734.131 180.352 728.881 179.133L713.834 175.617C701.365 172.758 691.545 168.141 684.373 161.766C677.201 155.344 673.639 146.672 673.686 135.75C673.639 126.844 676.029 119.039 680.857 112.336C685.686 105.633 692.365 100.406 700.896 96.6563C709.428 92.9062 719.154 91.0312 730.076 91.0312C741.232 91.0312 750.912 92.9297 759.115 96.7266C767.365 100.477 773.764 105.75 778.311 112.547C782.857 119.344 785.178 127.219 785.271 136.172H751.943ZM948.857 93V237H919.326L862.021 153.891H861.107V237H826.303V93H856.256L912.928 175.969H914.123V93H948.857ZM1027.03 93V237H992.227V93H1027.03ZM1201.08 145.172H1165.92C1165.45 141.562 1164.49 138.305 1163.04 135.398C1161.58 132.492 1159.66 130.008 1157.27 127.945C1154.88 125.883 1152.04 124.312 1148.76 123.234C1145.53 122.109 1141.94 121.547 1138.01 121.547C1131.02 121.547 1125 123.258 1119.94 126.68C1114.92 130.102 1111.05 135.047 1108.33 141.516C1105.66 147.984 1104.33 155.812 1104.33 165C1104.33 174.562 1105.69 182.578 1108.4 189.047C1111.17 195.469 1115.04 200.32 1120.01 203.602C1125.02 206.836 1130.95 208.453 1137.79 208.453C1141.64 208.453 1145.13 207.961 1148.27 206.977C1151.46 205.992 1154.25 204.563 1156.64 202.688C1159.08 200.766 1161.07 198.445 1162.62 195.727C1164.21 192.961 1165.31 189.844 1165.92 186.375L1201.08 186.586C1200.47 192.961 1198.62 199.242 1195.52 205.43C1192.47 211.617 1188.28 217.266 1182.94 222.375C1177.59 227.437 1171.08 231.469 1163.39 234.469C1155.75 237.469 1146.98 238.969 1137.09 238.969C1124.06 238.969 1112.39 236.109 1102.08 230.391C1091.81 224.625 1083.7 216.234 1077.75 205.219C1071.79 194.203 1068.82 180.797 1068.82 165C1068.82 149.156 1071.84 135.727 1077.89 124.711C1083.94 113.695 1092.12 105.328 1102.43 99.6094C1112.74 93.8906 1124.29 91.0312 1137.09 91.0312C1145.81 91.0312 1153.87 92.25 1161.28 94.6875C1168.69 97.0781 1175.2 100.594 1180.83 105.234C1186.45 109.828 1191.02 115.477 1194.54 122.18C1198.05 128.883 1200.23 136.547 1201.08 145.172Z" fill="#ECECEC"/>
</svg>
